<?xml version="1.0" standalone="no"?>
<!DOCTYPE svg PUBLIC "-//W3C//DTD SVG 20010904//EN"
 "http://www.w3.org/TR/2001/REC-SVG-20010904/DTD/svg10.dtd">
<svg version="1.0" xmlns="http://www.w3.org/2000/svg"
 width="300.000000pt" height="300.000000pt" viewBox="0 0 300.000000 300.000000"
 preserveAspectRatio="xMidYMid meet">
<metadata>
Created by potrace 1.11, written by Peter Selinger 2001-2013
</metadata>
<g transform="translate(0.000000,300.000000) scale(0.100000,-0.100000)"
fill="#000000" stroke="none">
<path d="M1476 2908 c-9 -12 -16 -31 -16 -41 0 -14 -5 -17 -19 -12 -11 3 -22
1 -26 -5 -10 -16 -73 -12 -83 6 -8 14 -11 14 -26 -7 -13 -19 -16 -20 -16 -6 0
11 -8 17 -22 16 -13 0 -17 -3 -10 -6 6 -2 12 -12 12 -20 0 -14 9 -15 55 -3 6
1 25 2 43 1 23 -1 32 -6 32 -18 0 -10 7 -26 14 -36 13 -16 14 -16 19 4 6 23
30 22 34 -2 5 -25 -11 -36 -59 -43 -51 -8 -61 2 -32 31 11 11 12 19 4 27 -13
13 -30 -8 -30 -37 0 -18 -5 -21 -52 -31 -21 -5 -28 -3 -28 9 0 10 10 15 29 15
24 0 28 4 24 19 -3 13 1 21 14 24 10 3 2 5 -17 5 -19 0 -29 -2 -22 -5 14 -5
17 -33 3 -33 -5 0 -11 7 -15 15 -3 8 -16 15 -28 14 -13 0 -17 -3 -10 -6 20 -8
14 -33 -8 -33 -12 0 -20 -7 -20 -18 0 -13 -13 -20 -45 -28 -36 -8 -45 -8 -45
3 0 7 -4 13 -9 13 -5 0 -7 -8 -4 -19 3 -14 -2 -20 -22 -25 -15 -4 -25 -9 -23
-12 3 -2 17 0 31 5 18 7 27 7 29 -1 5 -14 228 25 238 42 10 16 100 27 100 11
0 -6 -3 -10 -7 -8 -5 1 -9 -1 -10 -5 -7 -19 -2 -28 16 -28 11 0 22 -6 24 -12
4 -10 8 -10 14 -2 4 7 17 13 28 15 11 3 20 11 20 19 0 8 -6 14 -12 13 -7 -2
-13 2 -13 7 0 7 25 9 68 6 37 -3 59 -3 50 0 -13 4 -18 15 -17 37 1 22 3 25 6
11 5 -28 53 -40 53 -13 0 11 11 20 31 24 23 5 28 9 18 16 -11 7 -11 9 3 9 11
0 15 5 12 15 -4 10 0 15 12 16 11 0 14 3 8 5 -6 3 -22 0 -35 -5 -13 -5 -18
-10 -11 -10 10 -1 10 -5 0 -21 -15 -23 -48 -27 -48 -5 0 8 4 15 10 15 5 0 7 6
4 14 -3 8 2 16 13 19 14 4 14 5 -4 6 -14 1 -23 -5 -23 -14 0 -8 -9 -15 -20
-15 -12 0 -20 7 -20 18 0 14 2 15 10 2 8 -13 10 -12 10 3 0 12 -8 17 -27 17
-21 0 -24 -3 -13 -10 12 -8 12 -10 -2 -15 -9 -4 -25 -2 -35 3 -10 5 -24 7 -30
5 -8 -3 -13 3 -13 14 -1 17 -32 63 -44 63 -2 0 -12 -10 -20 -22z m144 -108 c0
-24 -4 -30 -22 -30 -17 0 -19 3 -10 12 7 7 12 20 12 30 0 10 5 18 10 18 6 0
10 -13 10 -30z m50 12 c0 -4 -9 -8 -20 -9 -11 -1 -20 2 -20 8 0 5 9 9 20 9 11
0 20 -4 20 -8z m-103 -32 c3 -13 14 -20 29 -20 24 0 32 -14 15 -24 -15 -10
-69 5 -75 20 -7 18 3 44 16 44 5 0 12 -9 15 -20z m110 -6 c-3 -3 -12 -4 -19
-1 -8 3 -5 6 6 6 11 1 17 -2 13 -5z m-417 -44 c0 -5 -7 -10 -15 -10 -8 0 -15
5 -15 10 0 6 7 10 15 10 8 0 15 -4 15 -10z m10 -24 c0 -2 -7 -6 -15 -10 -8 -3
-15 -1 -15 4 0 6 7 10 15 10 8 0 15 -2 15 -4z m-43 -12 c-3 -3 -12 -4 -19 -1
-8 3 -5 6 6 6 11 1 17 -2 13 -5z"/>
<path d="M1198 2843 c6 -2 18 -2 25 0 6 3 1 5 -13 5 -14 0 -19 -2 -12 -5z"/>
<path d="M1810 2790 c-6 -27 -15 -49 -18 -49 -4 1 -14 1 -21 0 -29 -2 4 -18
49 -24 39 -5 41 -5 17 5 -24 9 -28 14 -22 37 4 14 12 29 18 33 16 10 47 10 47
1 0 -12 -16 -35 -24 -34 -24 3 -28 0 -17 -13 15 -18 52 -9 44 10 -6 15 14 19
34 6 12 -7 3 -35 -11 -32 -4 0 -14 -6 -22 -15 -9 -8 -11 -15 -6 -15 6 0 17 -3
26 -6 11 -4 16 -1 16 10 0 19 8 20 49 3 17 -7 28 -17 24 -21 -4 -4 0 -4 10 0
13 5 16 2 11 -9 -3 -9 -13 -14 -22 -11 -9 3 6 -6 33 -21 58 -31 82 -51 71 -62
-4 -4 -13 -1 -19 7 -18 23 -47 21 -47 -2 0 -16 5 -19 24 -14 16 4 33 -1 52
-17 16 -12 29 -20 30 -17 1 3 37 -20 80 -51 140 -101 284 -266 365 -416 18
-35 35 -61 37 -58 3 2 1 10 -4 17 -6 7 -10 24 -10 38 -1 14 1 18 3 8 5 -18 34
-34 30 -16 -5 23 20 17 31 -7 15 -33 15 -35 -3 -35 -9 0 -18 -7 -21 -15 -4 -8
-10 -12 -15 -9 -5 3 -4 -7 1 -21 6 -15 10 -51 10 -81 0 -30 4 -54 9 -54 25 0
38 13 34 34 -3 16 2 25 21 34 22 10 26 9 26 -4 0 -12 4 -13 20 -4 11 6 20 15
20 19 0 11 -48 21 -52 11 -2 -4 -13 -11 -25 -14 -18 -6 -23 -3 -23 11 0 11 5
24 12 31 8 8 9 12 1 12 -13 0 -5 42 11 52 6 4 19 5 28 2 30 -9 39 4 25 39 -8
18 -12 37 -10 42 2 6 -7 16 -19 24 -13 7 -20 10 -16 6 4 -5 0 -14 -10 -22 -15
-12 -15 -12 0 -7 11 4 22 -3 34 -21 9 -14 15 -27 13 -28 -50 -28 -48 -28 -64
3 -9 17 -13 30 -10 30 4 0 -1 7 -9 16 -17 17 -21 34 -8 34 4 0 13 -5 20 -12
23 -23 13 12 -13 46 -31 41 -34 76 -5 69 21 -6 28 11 8 23 -6 4 -18 -2 -27
-13 -15 -18 -18 -18 -31 -3 -8 9 -11 10 -7 3 13 -18 -1 -37 -18 -23 -10 8 -13
7 -11 -4 2 -25 -17 -13 -51 31 -18 23 -27 43 -21 45 6 2 -6 16 -26 32 -20 15
-34 32 -30 37 4 6 17 1 33 -13 l26 -23 -23 26 c-15 17 -20 29 -13 34 6 3 11 1
11 -4 0 -6 7 -11 15 -11 23 0 18 16 -10 34 -33 22 -33 39 0 26 23 -9 25 -8 15
10 -12 23 -21 25 -38 8 -9 -9 -16 -8 -29 5 -13 13 -14 19 -5 29 9 9 12 8 12
-6 0 -10 5 -14 11 -10 7 4 6 12 -5 23 -15 14 -18 14 -26 1 -8 -12 -12 -12 -28
4 -15 13 -22 14 -28 5 -4 -7 -3 -10 3 -6 13 8 37 -19 28 -32 -3 -6 -36 14 -75
46 -51 42 -67 60 -59 69 7 8 6 15 -2 20 -8 5 -9 3 -4 -5 5 -9 -1 -12 -21 -9
-22 2 -29 8 -29 26 -1 22 -25 44 -80 72 -17 8 -29 22 -29 32 1 9 -5 19 -13 23
-11 4 -14 0 -10 -14 3 -14 1 -18 -9 -14 -10 4 -12 0 -8 -11 4 -10 1 -16 -9
-16 -19 0 -35 22 -19 28 6 2 9 9 6 17 -3 7 2 15 13 17 15 3 15 5 -4 10 -13 3
-21 2 -20 -4 1 -6 -4 -13 -11 -15 -9 -4 -11 2 -7 20 6 22 1 29 -38 51 -30 18
-58 26 -89 26 l-46 0 -12 -50z m101 30 c34 -10 79 -40 79 -53 0 -4 -7 -4 -15
0 -13 5 -14 2 -4 -20 8 -17 17 -24 28 -20 12 4 13 3 5 -6 -8 -8 -18 -8 -42 0
-35 12 -43 29 -14 29 14 0 15 2 2 10 -9 6 -11 10 -3 10 7 0 10 6 7 14 -6 16
-56 29 -96 26 -16 -1 -28 3 -28 9 0 14 34 14 81 1z m14 -40 c8 -13 -5 -13 -25
0 -13 8 -13 10 2 10 9 0 20 -4 23 -10z m159 -96 c10 -25 -1 -29 -14 -5 -6 12
-7 21 -1 21 5 0 12 -7 15 -16z m40 -20 c3 -9 13 -14 21 -10 16 6 30 -10 16
-18 -5 -3 -15 -4 -23 -1 -17 7 -42 45 -29 45 5 0 12 -7 15 -16z m-54 -14 c12
-23 7 -25 -21 -9 -11 5 -17 14 -14 20 10 15 23 11 35 -11z m46 -35 c20 -48 17
-57 -6 -15 -20 36 -24 50 -14 50 3 0 12 -16 20 -35z m48 -8 c3 4 19 -6 35 -21
16 -15 33 -28 38 -29 16 -1 62 -40 57 -49 -3 -5 -2 -8 3 -7 18 3 33 -2 33 -11
0 -5 -8 -10 -18 -10 -21 0 -56 33 -45 43 3 4 -3 7 -15 7 -28 0 -28 -13 1 -25
12 -6 21 -17 19 -24 -1 -7 2 -10 7 -7 5 4 12 2 16 -4 12 -19 -20 -10 -58 16
-30 20 -36 29 -27 39 8 10 4 18 -19 34 -16 12 -33 21 -38 21 -4 0 7 -10 25
-22 21 -13 30 -24 24 -30 -6 -6 -20 -3 -37 8 -20 13 -25 23 -21 40 3 13 2 26
-4 29 -5 3 -10 12 -10 18 0 7 6 4 14 -5 7 -10 16 -15 20 -11z m236 -201 c-12
-12 -42 12 -33 27 3 5 1 7 -4 4 -6 -4 -18 2 -27 12 -13 15 -14 20 -4 24 18 6
81 -54 68 -67z m20 49 c19 -23 1 -39 -21 -19 -10 9 -16 21 -13 25 8 13 20 11
34 -6z m-21 -82 c68 -69 71 -74 29 -43 -27 18 -48 37 -48 42 0 5 -4 7 -9 4
-12 -8 -34 21 -26 33 3 6 0 9 -8 6 -7 -3 -22 3 -32 15 -17 19 -17 20 0 20 10
0 52 -35 94 -77z m57 46 c3 -6 -3 -21 -15 -32 -16 -16 -23 -19 -33 -9 -9 9 -7
16 7 32 20 23 31 25 41 9z m74 -200 c20 -27 23 -28 44 -14 22 15 23 14 24 -15
1 -26 -2 -29 -18 -20 -15 8 -17 6 -13 -10 3 -11 9 -20 14 -20 5 0 9 -14 9 -32
0 -31 -1 -30 -34 24 -18 31 -55 85 -82 120 l-49 63 42 -33 c24 -18 52 -47 63
-63z m87 -31 c-3 -7 -5 -2 -5 12 0 14 2 19 5 13 2 -7 2 -19 0 -25z m30 -30
c-2 -7 -10 -12 -16 -10 -15 3 -13 -9 4 -32 8 -10 12 -23 9 -27 -11 -18 -22 -8
-27 24 -5 32 6 57 25 57 5 0 8 -6 5 -12z m10 -185 c-3 -10 -5 -4 -5 12 0 17 2
24 5 18 2 -7 2 -21 0 -30z m0 -115 c-3 -7 -5 -2 -5 12 0 14 2 19 5 13 2 -7 2
-19 0 -25z"/>
<path d="M1118 2823 c7 -3 16 -2 19 1 4 3 -2 6 -13 5 -11 0 -14 -3 -6 -6z"/>
<path d="M1192 2815 l-23 -12 24 -5 c13 -3 32 1 41 7 15 12 15 13 0 19 -8 3
-16 6 -17 5 -1 -1 -12 -7 -25 -14z"/>
<path d="M1035 2800 c-13 -6 -15 -9 -5 -9 8 0 22 4 30 9 18 12 2 12 -25 0z"/>
<path d="M1778 2803 c7 -3 16 -2 19 1 4 3 -2 6 -13 5 -11 0 -14 -3 -6 -6z"/>
<path d="M1118 2793 c-19 -5 -22 -20 -12 -47 8 -21 33 2 27 25 -3 11 2 19 14
22 10 3 12 5 3 5 -8 0 -23 -2 -32 -5z"/>
<path d="M960 2770 c-21 -13 -22 -53 -1 -44 9 4 28 9 44 12 15 2 27 11 27 18
0 18 -5 18 -35 -2 -22 -14 -25 -15 -25 -1 0 8 6 18 13 20 6 3 8 6 2 6 -5 0
-17 -4 -25 -9z"/>
<path d="M1044 2768 c-5 -7 -2 -9 9 -5 9 3 18 0 21 -9 3 -9 -1 -14 -12 -14
-14 0 -14 -2 -3 -9 18 -12 39 8 33 31 -5 20 -37 24 -48 6z"/>
<path d="M1190 2776 c0 -2 7 -6 15 -10 8 -3 15 -1 15 4 0 6 -7 10 -15 10 -8 0
-15 -2 -15 -4z"/>
<path d="M1758 2773 c7 -3 16 -2 19 1 4 3 -2 6 -13 5 -11 0 -14 -3 -6 -6z"/>
<path d="M1157 2754 c3 -9 0 -20 -8 -26 -10 -7 -7 -8 11 -4 14 3 31 6 37 6 9
0 7 7 -4 20 -21 24 -45 27 -36 4z"/>
<path d="M914 2754 c-7 -3 -10 -13 -7 -23 3 -13 -4 -22 -26 -31 -35 -14 -51
-31 -22 -23 10 3 21 -2 24 -10 3 -7 0 -14 -7 -14 -6 0 -30 -12 -53 -26 -24
-15 -47 -27 -52 -27 -5 0 -14 -7 -21 -15 -7 -8 -16 -12 -21 -9 -5 3 -6 -2 -3
-11 4 -9 -1 -24 -10 -34 -9 -10 -14 -20 -11 -23 6 -6 -57 -38 -75 -38 -6 0 -8
5 -5 11 4 6 -3 5 -15 -3 -19 -11 -23 -11 -27 0 -4 10 -9 10 -22 -2 -16 -15
-46 -24 -84 -25 -10 -1 -15 -6 -12 -12 4 -6 -4 -23 -16 -37 l-24 -27 27 24
c39 34 57 16 21 -23 -37 -40 -66 -80 -34 -46 14 14 28 24 33 22 4 -1 8 5 8 14
0 9 5 12 12 8 6 -4 8 -3 4 4 -3 6 -2 13 3 16 5 4 13 1 16 -5 4 -6 -7 -25 -24
-43 -28 -29 -30 -34 -17 -45 14 -12 12 -17 -10 -50 l-26 -36 29 34 c21 24 32
30 37 22 5 -7 0 -21 -10 -32 -21 -24 -8 -25 20 -1 l21 17 -19 -23 c-11 -12
-26 -20 -34 -17 -7 3 -19 2 -25 -2 -21 -13 -38 -12 -44 3 -7 18 16 46 30 37 6
-3 7 -1 3 6 -4 6 -4 18 1 24 4 7 -1 2 -13 -10 -12 -15 -27 -21 -36 -18 -28 11
-30 -14 -3 -39 26 -24 26 -25 9 -53 l-18 -28 25 21 c38 33 56 40 30 11 -42
-47 -8 -29 54 28 47 43 57 56 46 64 -12 7 -4 21 37 69 87 100 240 216 360 271
28 13 48 29 45 34 -3 6 -1 7 5 3 6 -3 26 0 44 8 27 12 29 15 11 15 -12 1 -43
-6 -68 -14 -25 -9 -50 -13 -55 -10 -6 3 -10 1 -10 -4 0 -6 -3 -10 -7 -9 -11 3
-69 -28 -128 -69 l-50 -34 44 40 c42 40 148 98 158 87 3 -3 21 1 40 9 20 8 44
15 54 15 20 0 26 15 9 25 -5 3 -10 2 -10 -2 0 -5 -26 -14 -57 -21 -48 -10 -60
-9 -71 2 -12 12 -11 16 9 28 13 7 25 23 25 36 1 12 1 22 0 21 0 0 -6 -3 -12
-5z m-21 -168 c-34 -18 -84 -49 -112 -69 -28 -21 -55 -37 -60 -37 -5 0 -11 -5
-13 -12 -2 -6 -14 -13 -27 -15 -21 -3 -22 -2 -5 14 10 10 19 16 21 13 3 -3 9
3 14 13 6 9 15 15 20 11 5 -3 26 9 46 27 35 30 146 89 168 89 6 0 -18 -15 -52
-34z m-244 -130 c-9 -10 -59 -14 -54 -5 4 5 18 9 32 9 15 0 24 -2 22 -4z
m-132 -22 c-3 -3 -12 -4 -19 -1 -8 3 -5 6 6 6 11 1 17 -2 13 -5z m78 -78 c-45
-47 -84 -81 -89 -76 -10 10 62 102 75 94 5 -3 13 6 18 20 10 26 36 45 61 46 8
0 -21 -38 -65 -84z m13 68 c-4 -3 -9 -4 -12 -2 -4 2 -15 -12 -26 -30 l-21 -34
-19 25 c-25 32 -25 37 1 37 19 0 20 -2 8 -17 -9 -11 -3 -9 15 5 25 19 70 33
54 16z m-88 -99 c-10 -12 -15 -13 -21 -3 -11 17 11 42 24 29 7 -7 6 -15 -3
-26z"/>
<path d="M1700 2739 c0 -5 5 -7 12 -3 7 5 8 3 3 -5 -4 -7 -16 -11 -26 -8 -11
3 -19 1 -19 -4 0 -11 41 -12 55 -1 18 13 15 32 -5 32 -11 0 -20 -5 -20 -11z"/>
<path d="M851 2726 c-9 -10 -8 -15 3 -19 14 -5 36 10 36 25 0 13 -27 9 -39 -6z"/>
<path d="M798 2706 c-4 -21 -3 -23 13 -13 9 6 15 17 12 24 -8 21 -20 15 -25
-11z"/>
<path d="M1010 2720 c-8 -5 -10 -10 -5 -10 6 0 17 5 25 10 8 5 11 10 5 10 -5
0 -17 -5 -25 -10z"/>
<path d="M756 2711 c-4 -7 -5 -15 -2 -18 9 -9 19 4 14 18 -4 11 -6 11 -12 0z"/>
<path d="M707 2703 c-12 -11 -8 -23 8 -23 8 0 15 7 15 15 0 16 -12 20 -23 8z"/>
<path d="M950 2695 c-14 -8 -20 -14 -15 -14 6 0 21 6 35 14 14 8 21 14 15 14
-5 0 -21 -6 -35 -14z"/>
<path d="M1080 2699 c0 -5 5 -7 10 -4 6 3 10 8 10 11 0 2 -4 4 -10 4 -5 0 -10
-5 -10 -11z"/>
<path d="M1775 2694 c28 -7 55 -13 60 -13 17 2 -69 27 -90 27 -11 0 3 -6 30
-14z"/>
<path d="M2140 2706 c0 -3 9 -10 20 -16 11 -6 20 -8 20 -6 0 3 -9 10 -20 16
-11 6 -20 8 -20 6z"/>
<path d="M1852 2690 c3 -12 158 -84 166 -76 1 2 -28 16 -65 32 -37 15 -76 35
-86 43 -15 13 -18 13 -15 1z"/>
<path d="M1933 2678 c2 -7 10 -13 17 -13 7 0 15 6 18 13 2 7 -5 12 -18 12 -13
0 -20 -5 -17 -12z"/>
<path d="M754 2665 c-18 -14 -18 -14 4 -8 12 3 22 9 22 14 0 12 -3 11 -26 -6z"/>
<path d="M2190 2676 c0 -3 9 -10 20 -16 11 -6 20 -8 20 -6 0 3 -9 10 -20 16
-11 6 -20 8 -20 6z"/>
<path d="M676 2663 c-11 -11 -6 -23 9 -23 8 0 15 4 15 9 0 13 -16 22 -24 14z"/>
<path d="M786 2647 c-16 -12 -16 -14 -3 -14 9 0 18 6 21 14 3 7 4 13 3 13 -2
0 -11 -6 -21 -13z"/>
<path d="M2284 2642 c4 -22 3 -22 -18 -9 l-22 15 21 -44 c18 -40 52 -73 38
-38 -3 7 -9 14 -14 14 -5 0 -9 7 -9 16 0 13 6 11 33 -7 l32 -23 -22 25 c-12
13 -27 35 -33 49 -10 23 -10 24 -6 2z"/>
<path d="M716 2642 c-3 -5 1 -9 9 -9 8 0 12 4 9 9 -3 4 -7 8 -9 8 -2 0 -6 -4
-9 -8z"/>
<path d="M674 2614 c-6 -3 -32 -25 -59 -49 -26 -25 -53 -45 -59 -45 -6 0 -16
-12 -23 -26 -11 -23 -10 -24 5 -13 9 7 23 20 30 28 11 13 14 14 21 2 5 -7 14
-10 20 -6 9 5 7 11 -6 21 -10 7 -13 14 -6 14 6 0 20 -11 31 -25 l20 -25 38 36
c26 24 30 31 12 20 -42 -27 -42 -2 0 34 20 17 32 29 25 26 -6 -4 -14 -2 -18 4
-6 11 -13 11 -31 4z m29 -11 c6 -6 -54 -53 -67 -53 -17 0 -3 22 19 30 14 5 25
14 25 20 0 11 13 13 23 3z m-38 -72 c7 -12 -12 -24 -25 -16 -11 7 -4 25 10 25
5 0 11 -4 15 -9z"/>
<path d="M2369 2547 c15 -17 28 -24 34 -18 12 12 -1 34 -14 25 -5 -3 -18 0
-27 7 -9 8 -6 1 7 -14z"/>
<path d="M2316 2541 c-3 -5 1 -12 10 -15 20 -8 29 -1 19 13 -8 13 -22 14 -29
2z"/>
<path d="M1055 2459 c-173 -91 -284 -376 -183 -471 l30 -28 40 21 c22 11 37
23 34 27 -4 3 -12 0 -18 -6 -18 -18 -66 -15 -76 6 -31 59 -15 215 29 290 32
54 98 121 141 143 72 37 178 15 209 -42 16 -31 13 -96 -6 -126 l-17 -28 22 21
c12 12 24 39 27 64 16 117 -116 190 -232 129z"/>
<path d="M2510 2385 c-16 -19 -6 -32 13 -17 8 7 17 9 20 5 4 -3 -7 -16 -24
-29 -18 -13 -26 -25 -19 -29 5 -3 8 -10 5 -14 -2 -5 3 -15 13 -23 30 -26 40
-29 38 -10 0 9 5 16 12 15 6 -2 12 2 12 7 0 7 6 7 20 0 16 -8 20 -8 20 4 0 25
-19 28 -49 7 -28 -20 -29 -20 -46 -1 -20 22 -11 48 10 30 24 -20 31 29 8 52
-18 17 -21 18 -33 3z"/>
<path d="M409 2353 c-13 -16 -12 -17 4 -4 9 7 17 15 17 17 0 8 -8 3 -21 -13z"/>
<path d="M2565 2330 c-3 -5 1 -10 9 -10 9 0 16 5 16 10 0 6 -4 10 -9 10 -6 0
-13 -4 -16 -10z"/>
<path d="M372 2314 c4 -21 22 -23 26 -1 2 10 -3 17 -13 17 -10 0 -15 -6 -13
-16z"/>
<path d="M396 2282 c-3 -5 1 -9 9 -9 8 0 12 4 9 9 -3 4 -7 8 -9 8 -2 0 -6 -4
-9 -8z"/>
<path d="M1479 2234 c-39 -89 -56 -129 -68 -161 -11 -27 -51 -75 -51 -61 0 2
7 26 16 52 18 52 18 51 -12 60 -32 10 -67 -34 -68 -86 -1 -35 2 -43 19 -45 11
-1 14 0 8 3 -7 3 -13 17 -13 30 0 14 4 22 10 19 5 -3 7 0 4 9 -7 19 13 56 31
56 12 0 12 -6 0 -41 -16 -46 -19 -79 -7 -79 4 0 17 7 29 15 14 10 24 12 28 5
3 -5 25 -9 48 -8 l42 1 -38 4 c-37 4 -38 5 -32 36 4 18 16 53 27 80 17 38 25
47 47 48 23 2 24 2 4 6 -27 5 -27 3 -7 53 24 59 8 62 -17 4z"/>
<path d="M320 2215 c0 -8 10 -19 21 -26 16 -8 20 -8 14 0 -4 7 -2 17 4 24 7
10 4 13 -15 15 -15 1 -24 -3 -24 -13z"/>
<path d="M2660 2200 c0 -5 5 -10 11 -10 5 0 7 5 4 10 -3 6 -8 10 -11 10 -2 0
-4 -4 -4 -10z"/>
<path d="M371 2182 c-7 -13 -6 -19 2 -19 7 0 13 9 13 19 0 10 -1 18 -3 18 -1
0 -7 -8 -12 -18z"/>
<path d="M296 2169 c6 -11 31 -12 37 -1 3 4 -6 8 -19 8 -13 1 -21 -2 -18 -7z"/>
<path d="M265 2132 c-24 -32 -28 -63 -9 -55 8 3 14 15 14 27 0 12 5 27 12 34
6 6 10 14 7 16 -2 2 -13 -8 -24 -22z"/>
<path d="M305 2139 c-4 -6 -5 -12 -2 -15 2 -3 7 2 10 11 7 17 1 20 -8 4z"/>
<path d="M327 2115 c2 -7 -3 -19 -11 -27 -8 -9 -17 -43 -20 -78 -7 -69 -12
-82 -25 -61 -5 8 -14 10 -21 6 -10 -6 -11 -1 -7 21 6 28 6 28 -5 5 -10 -19 -9
-25 3 -35 9 -6 15 -17 13 -24 -1 -7 0 -8 3 -2 10 20 23 9 23 -20 0 -16 -5 -30
-11 -30 -5 0 -7 -5 -4 -10 11 -18 23 -1 29 45 4 24 11 47 16 50 4 3 3 -19 -4
-49 -7 -30 -10 -60 -5 -67 5 -9 10 -3 14 17 10 43 44 129 82 209 19 39 26 60
16 47 -10 -12 -31 -53 -47 -92 -16 -38 -31 -69 -32 -67 -6 5 25 115 41 147 9
19 12 30 6 24 -6 -6 -25 -42 -41 -80 -27 -63 -43 -79 -20 -20 6 18 6 26 -1 26
-6 0 -2 16 10 36 25 42 25 41 7 41 -8 0 -12 -6 -9 -12z"/>
<path d="M1020 2079 c-19 -30 -35 -61 -36 -70 0 -9 -21 -52 -45 -95 -51 -92
-187 -237 -233 -248 -65 -16 -57 41 12 85 45 28 51 40 10 18 -28 -15 -35 -3
-12 23 l18 23 -23 -21 c-12 -11 -23 -28 -25 -37 -1 -9 -10 -25 -20 -36 -24
-26 -18 -65 11 -69 51 -7 179 95 254 204 40 58 132 250 127 264 -2 7 -19 -12
-38 -41z"/>
<path d="M1099 2084 c-12 -27 -25 -51 -28 -54 -3 -3 -7 -13 -7 -22 -3 -31 24
-19 37 16 7 19 16 33 21 30 4 -3 5 2 2 11 -10 26 14 44 52 38 22 -4 34 -2 34
6 0 6 -13 11 -29 11 -16 0 -37 3 -45 6 -12 5 -22 -6 -37 -42z"/>
<path d="M1225 2095 c-15 -19 -28 -49 -28 -67 -2 -28 2 -34 22 -36 13 -2 28 1
33 6 6 6 0 8 -18 4 -23 -4 -26 -2 -21 12 4 10 7 22 7 27 0 5 6 9 13 9 21 0 60
47 54 64 -10 26 -34 18 -62 -19z m31 -11 c-10 -14 -20 -23 -23 -21 -2 3 3 17
13 31 9 15 19 24 22 22 2 -3 -3 -17 -12 -32z"/>
<path d="M2696 2077 c3 -10 9 -15 12 -12 3 3 0 11 -7 18 -10 9 -11 8 -5 -6z"/>
<path d="M200 2045 c-10 -12 -10 -18 1 -31 11 -14 13 -14 22 2 7 13 7 19 -1
22 -7 2 -10 8 -6 13 9 15 -2 10 -16 -6z"/>
<path d="M256 2035 c-9 -26 -7 -32 5 -12 6 10 9 21 6 23 -2 3 -7 -2 -11 -11z"/>
<path d="M2640 2040 c-9 -6 -10 -10 -3 -10 6 0 15 5 18 10 8 12 4 12 -15 0z"/>
<path d="M146 2002 c-7 -11 30 -42 51 -42 7 0 13 8 13 18 0 14 -2 15 -10 2 -9
-13 -13 -11 -29 9 -11 15 -21 20 -25 13z"/>
<path d="M273 1995 c-7 -8 -9 -16 -4 -19 5 -3 12 1 15 10 8 22 4 25 -11 9z"/>
<path d="M1725 2000 c3 -5 8 -10 11 -10 2 0 4 5 4 10 0 6 -5 10 -11 10 -5 0
-7 -4 -4 -10z"/>
<path d="M2727 1996 c-3 -8 3 -24 14 -37 17 -20 19 -21 19 -3 0 10 -7 27 -14
37 -11 15 -15 15 -19 3z"/>
<path d="M1643 1964 c-26 -14 -64 -45 -83 -69 -19 -24 -43 -44 -54 -44 -10 -1
-57 17 -104 40 -47 22 -97 45 -111 51 -35 13 -121 27 -116 18 3 -4 22 -10 43
-12 21 -3 88 -29 148 -57 61 -28 118 -51 127 -51 9 0 17 -3 17 -7 0 -11 -118
-173 -159 -219 l-34 -38 -21 26 -21 26 -17 -22 c-15 -21 -15 -23 3 -34 10 -7
19 -17 19 -23 0 -5 -10 -3 -22 5 -55 39 -122 -1 -97 -58 16 -34 41 -41 78 -22
27 15 31 15 39 -1 9 -14 11 -14 22 6 10 20 13 21 28 8 28 -26 69 -31 97 -13
15 10 26 12 30 6 3 -6 17 -10 31 -10 18 0 23 -4 18 -12 -5 -9 -2 -8 10 1 11
10 13 16 6 21 -8 5 -7 18 4 45 22 51 20 65 -7 65 -28 0 -53 -25 -62 -63 -12
-47 -76 -64 -109 -28 -16 18 -16 20 6 35 18 13 20 18 9 25 -10 6 -2 22 35 69
27 33 69 91 94 130 42 66 48 70 88 76 31 4 50 1 65 -9 31 -22 61 -18 96 11 25
20 31 34 31 63 0 38 -11 52 -57 78 -18 10 -29 8 -70 -13z m101 -23 c45 -50
-45 -139 -103 -102 -13 8 -13 12 0 27 12 15 12 17 0 9 -11 -6 -13 -4 -8 11 7
18 6 18 -8 -1 -28 -39 -36 -45 -55 -45 -31 0 -24 16 28 70 42 44 53 50 89 50
26 0 46 -6 57 -19z m-444 -356 c18 -22 5 -30 -19 -13 -12 8 -18 18 -14 21 10
11 19 8 33 -8z m220 -12 c0 -18 -34 -93 -41 -93 -15 0 -10 54 7 78 15 21 34
30 34 15z m-301 -25 c16 -10 18 -16 9 -32 -10 -20 -10 -20 8 -7 17 14 18 14 4
-2 -8 -9 -26 -18 -40 -19 -20 -2 -26 2 -28 20 -7 48 11 63 47 40z m113 -10
c-7 -7 -12 -8 -12 -2 0 6 3 14 7 17 3 4 9 5 12 2 2 -3 -1 -11 -7 -17z m-22
-22 c0 -3 -4 -8 -10 -11 -5 -3 -10 -1 -10 4 0 6 5 11 10 11 6 0 10 -2 10 -4z"/>
<path d="M2700 1985 c0 -5 5 -17 10 -25 5 -8 10 -10 10 -5 0 6 -5 17 -10 25
-5 8 -10 11 -10 5z"/>
<path d="M1096 1958 c3 -4 -1 -8 -9 -8 -22 0 -57 -44 -57 -72 0 -57 88 -86
148 -49 22 14 32 28 32 45 0 27 -24 41 -48 26 -14 -8 -13 -9 8 -7 19 1 25 -3
25 -18 0 -27 -42 -47 -88 -41 -102 12 -86 97 21 116 l37 6 -37 5 c-20 3 -34 1
-32 -3z"/>
<path d="M220 1929 c0 -5 -4 -8 -8 -5 -4 2 -9 -11 -10 -29 -2 -27 1 -33 12
-29 9 3 14 18 13 40 -1 19 -2 34 -4 34 -2 0 -3 -5 -3 -11z"/>
<path d="M784 1888 l-29 -33 33 29 c17 17 32 31 32 33 0 8 -8 1 -36 -29z"/>
<path d="M171 1884 c0 -11 3 -14 6 -6 3 7 2 16 -1 19 -3 4 -6 -2 -5 -13z"/>
<path d="M241 1884 c0 -11 3 -14 6 -6 3 7 2 16 -1 19 -3 4 -6 -2 -5 -13z"/>
<path d="M2700 1880 c0 -8 5 -22 10 -30 9 -13 10 -13 10 0 0 8 -5 22 -10 30
-9 13 -10 13 -10 0z"/>
<path d="M2730 1866 c0 -9 4 -16 9 -16 5 0 12 -8 15 -17 2 -10 4 -5 3 11 -2
30 -27 50 -27 22z"/>
<path d="M2781 1854 c0 -11 3 -14 6 -6 3 7 2 16 -1 19 -3 4 -6 -2 -5 -13z"/>
<path d="M160 1847 c0 -14 19 -37 32 -37 16 0 7 30 -12 40 -15 8 -20 8 -20 -3z"/>
<path d="M261 1824 c0 -11 3 -14 6 -6 3 7 2 16 -1 19 -3 4 -6 -2 -5 -13z"/>
<path d="M2684 1821 c3 -17 0 -25 -15 -28 -10 -3 -19 -7 -19 -10 0 -3 16 -33
35 -67 22 -40 35 -77 36 -102 0 -21 3 -33 6 -26 2 6 13 12 24 12 10 0 19 4 19
9 0 5 -9 7 -20 4 -16 -4 -20 0 -20 17 0 16 4 20 15 16 11 -4 15 1 15 18 0 14
-6 27 -12 29 -7 3 -4 6 7 6 12 1 16 4 9 9 -19 12 -25 69 -9 76 22 8 18 26 -4
26 -11 0 -22 6 -24 13 -3 6 -5 -6 -4 -28 1 -22 6 -43 10 -46 5 -4 7 -15 5 -25
-3 -15 -8 -10 -21 19 -9 21 -16 41 -15 45 1 4 -4 18 -11 32 -11 25 -11 25 -7
1z m6 -62 c0 -6 -4 -7 -10 -4 -5 3 -10 11 -10 16 0 6 5 7 10 4 6 -3 10 -11 10
-16z m20 -40 c0 -6 -4 -7 -10 -4 -5 3 -10 11 -10 16 0 6 5 7 10 4 6 -3 10 -11
10 -16z m30 -52 c0 -5 -4 -5 -10 -2 -5 3 -10 14 -10 23 0 15 2 15 10 2 5 -8
10 -19 10 -23z"/>
<path d="M220 1809 c0 -11 4 -18 10 -14 5 3 7 12 3 20 -7 21 -13 19 -13 -6z"/>
<path d="M2791 1814 c0 -11 3 -14 6 -6 3 7 2 16 -1 19 -3 4 -6 -2 -5 -13z"/>
<path d="M150 1806 c0 -8 -4 -16 -8 -18 -4 -1 -5 -16 -2 -33 l6 -30 8 33 c8
33 20 42 29 20 3 -8 6 -6 6 4 1 10 -8 22 -19 28 -16 8 -20 8 -20 -4z"/>
<path d="M290 1808 c0 -11 -6 -14 -19 -11 -22 5 -30 -12 -37 -77 -3 -25 -7
-50 -9 -57 -2 -7 0 -15 4 -18 5 -3 13 19 17 47 4 29 9 56 10 61 1 4 2 14 3 22
0 8 5 15 10 15 5 0 4 -21 -1 -47 -5 -27 -9 -80 -9 -120 1 -64 -1 -72 -20 -78
-13 -5 -27 -1 -37 9 -14 14 -14 16 7 24 21 8 22 8 4 24 -16 14 -22 15 -43 5
-16 -8 -25 -21 -24 -35 0 -12 -3 -22 -8 -22 -4 0 -8 5 -8 11 0 5 -15 -4 -32
-21 l-33 -30 27 -23 c19 -16 28 -34 31 -62 l4 -40 1 43 c1 23 6 42 12 42 5 0
7 -7 4 -15 -8 -19 13 -45 35 -45 9 0 25 7 36 16 19 14 19 15 -3 20 -12 4 -22
10 -22 15 0 10 1 11 58 14 37 3 41 1 26 -9 -15 -11 -16 -24 -11 -90 5 -66 4
-76 -9 -65 -8 6 -14 23 -15 38 0 14 -3 20 -6 13 -4 -10 -8 -10 -19 -1 -20 16
-17 27 9 32 12 2 -3 5 -33 5 -30 0 -49 -2 -42 -5 19 -8 14 -21 -10 -26 l-23
-4 23 -2 c13 0 22 -7 22 -17 0 -8 4 -13 9 -10 4 3 6 17 3 31 -2 15 0 25 7 25
6 0 11 -6 11 -13 0 -7 20 -35 45 -62 25 -28 43 -54 42 -60 -2 -5 3 -25 10 -44
17 -40 12 -49 -13 -24 -17 17 -17 17 -11 1 4 -11 2 -18 -5 -18 -7 0 -7 -4 0
-13 6 -7 11 -46 10 -87 0 -57 -2 -69 -9 -51 -5 13 -12 22 -15 19 -2 -3 0 -17
7 -30 8 -19 17 -24 32 -20 16 4 19 2 14 -11 -3 -9 0 -18 9 -21 8 -3 13 -2 9 3
-3 5 1 11 7 13 8 3 24 -17 38 -46 14 -28 38 -73 55 -101 18 -31 23 -45 12 -36
-9 7 -17 20 -17 27 0 8 -4 14 -8 14 -5 0 -19 22 -32 49 -13 28 -29 52 -36 55
-16 6 -14 -13 4 -32 14 -16 15 -29 2 -37 -5 -3 -23 20 -39 52 -17 32 -30 54
-31 50 0 -4 11 -30 25 -58 14 -27 23 -54 20 -60 -10 -15 19 -6 32 11 9 13 13
11 24 -13 15 -33 6 -45 -18 -26 -16 13 -17 12 -4 -3 7 -10 10 -18 7 -18 -4 0
2 -10 14 -22 26 -28 26 -41 0 -33 -26 8 -25 -7 2 -31 12 -10 18 -13 14 -6 -12
20 4 35 22 20 9 -7 4 5 -11 27 -18 26 -23 43 -17 49 11 11 42 -22 36 -40 -2
-6 2 -11 10 -11 7 0 11 4 8 8 -2 4 2 11 10 16 12 7 8 18 -21 63 -19 30 -46 79
-60 109 -17 34 -28 49 -33 41 -13 -22 -30 -2 -20 24 5 14 5 39 -1 62 -19 82
-7 87 21 9 31 -85 103 -223 151 -289 31 -43 29 -68 -3 -39 -20 18 -21 18 -7
-4 16 -27 6 -41 -18 -22 -16 13 -17 12 -4 -3 7 -10 10 -19 5 -20 -5 0 -13 -2
-19 -3 -5 -2 -16 -3 -22 -4 -19 -2 -16 -26 5 -42 15 -13 16 -12 3 4 -12 15
-11 17 7 17 11 0 22 6 25 13 3 8 10 7 26 -7 28 -25 27 -38 -4 -26 -33 12 -24
-12 13 -36 21 -14 24 -14 14 -2 -10 13 -8 18 11 31 23 15 26 14 62 -23 21 -22
34 -43 30 -50 -8 -13 -45 15 -45 35 0 7 -9 15 -20 18 -28 7 -25 1 18 -38 30
-28 33 -35 18 -35 -11 0 -31 10 -45 23 l-25 22 25 -32 c25 -33 43 -41 54 -23
5 8 11 7 21 -1 13 -10 12 -15 -3 -31 -10 -11 -13 -18 -8 -16 10 3 15 -4 15
-23 0 -8 -6 -7 -17 2 -10 7 -5 -1 11 -19 16 -17 33 -29 38 -26 10 6 11 15 0
11 -4 -1 -7 3 -7 8 0 6 6 9 12 9 7 -1 10 2 7 7 -11 18 7 30 24 17 12 -9 11 -6
-2 10 -19 22 -32 30 -21 13 9 -15 -15 -24 -30 -11 -17 14 -10 34 8 24 7 -4 2
4 -11 18 -17 19 -20 28 -11 34 8 4 23 -5 41 -24 15 -18 31 -31 34 -30 4 2 13
-7 22 -19 9 -15 10 -23 3 -23 -6 0 -11 -7 -11 -16 0 -11 -5 -14 -16 -10 -14 6
-15 4 -4 -9 12 -15 14 -15 22 0 5 8 13 13 17 11 13 -8 5 52 -9 69 -23 28 -4
25 38 -6 40 -30 41 -31 26 -55 -9 -13 -21 -21 -28 -17 -6 3 3 -8 19 -25 30
-31 55 -41 55 -22 0 5 -15 16 -32 24 -27 11 -30 15 -16 21 24 10 81 -34 67
-51 -8 -9 -4 -16 12 -24 12 -7 19 -8 15 -2 -10 17 17 20 47 5 22 -11 26 -17
17 -28 -9 -10 -3 -17 28 -30 27 -12 38 -23 35 -34 -5 -19 44 -47 97 -56 l35
-6 -35 17 c-35 17 -43 20 -69 22 -11 2 -12 5 -4 13 13 13 65 1 56 -14 -3 -6
-1 -7 6 -3 6 4 18 2 26 -4 15 -12 35 -6 35 11 0 6 -8 9 -17 8 -33 -3 -44 1
-37 13 4 7 3 8 -5 4 -10 -6 -101 21 -101 30 0 2 5 14 11 27 8 17 17 23 30 20
10 -3 19 -10 19 -16 0 -6 2 -8 6 -5 3 3 26 -2 52 -12 26 -10 84 -25 129 -35
60 -13 80 -21 76 -31 -4 -10 -10 -11 -23 -4 -10 6 -34 10 -52 10 -18 0 -45 6
-60 14 -15 8 -29 11 -33 8 -3 -4 9 -12 27 -19 30 -11 31 -12 11 -18 -17 -6
-19 -10 -10 -20 7 -7 14 -10 17 -6 3 4 23 2 45 -5 34 -10 36 -13 15 -15 -14
-1 -36 -2 -50 -2 -20 0 -21 -1 -5 -5 15 -4 11 -8 -20 -17 -22 -7 -32 -13 -22
-14 9 -1 17 -5 17 -10 0 -5 24 -9 53 -9 29 1 44 4 33 7 -13 5 -5 10 30 18 27
7 57 15 67 18 9 4 17 3 17 -3 0 -6 -10 -13 -22 -15 l-23 -4 23 -2 c24 -1 31
-21 7 -21 -16 0 -20 -15 -7 -24 18 -11 36 19 34 57 0 9 6 17 15 17 9 0 13 -6
10 -14 -8 -20 18 -40 44 -33 14 4 19 2 16 -7 -3 -8 4 -28 15 -47 l20 -33 24
27 c13 16 24 35 24 43 0 8 8 14 18 14 39 0 53 39 26 75 -14 19 -15 19 -21 -3
-10 -38 -28 -18 -29 33 -1 35 1 44 8 32 5 -10 21 -17 38 -17 22 0 30 -5 33
-22 l4 -23 2 23 c0 13 7 22 17 22 10 0 14 -6 10 -15 -4 -11 2 -15 22 -14 17 1
20 3 10 6 -27 7 -22 23 7 23 15 0 25 -6 25 -14 0 -10 7 -12 23 -8 18 5 19 7 5
10 -30 6 -20 19 21 26 21 3 51 13 67 21 16 8 35 15 43 15 8 0 12 3 8 6 -3 4
-19 2 -36 -4 -18 -6 -31 -7 -33 -1 -4 12 -151 -16 -156 -30 -2 -6 -26 -11 -53
-11 -42 0 -49 3 -49 20 0 13 -7 20 -19 20 -11 0 -22 6 -25 13 -3 9 -8 8 -18
-3 -7 -8 -20 -15 -28 -15 -8 0 -15 -7 -15 -15 0 -8 6 -14 13 -12 6 1 12 -3 12
-9 0 -7 -14 -9 -37 -5 -21 3 -63 8 -93 11 -30 4 -71 10 -90 15 -19 4 -47 11
-61 14 -15 3 -29 14 -31 24 -3 11 -18 21 -37 25 -17 4 -49 15 -71 26 -34 16
-42 17 -47 6 -4 -13 -9 -12 -33 0 -15 8 -30 23 -33 34 -7 27 -65 61 -103 61
-34 0 -94 38 -161 103 -31 30 -43 36 -43 24 0 -9 -4 -17 -8 -17 -16 0 -82 76
-75 86 5 5 -1 1 -13 -9 -20 -16 -21 -16 -43 7 -28 30 -10 47 21 19 12 -10 18
-12 14 -5 -14 24 10 11 54 -28 24 -21 47 -37 52 -34 4 3 6 10 3 15 -3 5 1 6
10 2 12 -4 13 -8 5 -13 -9 -5 -9 -9 -1 -14 6 -4 14 0 17 9 8 19 15 12 -75 74
-51 35 -87 69 -113 108 -57 84 -121 215 -153 313 -25 76 -26 85 -12 94 15 9
14 13 -9 37 -21 22 -26 38 -31 112 -6 84 -5 87 16 87 14 0 21 6 21 19 0 11 4
22 9 25 15 9 -19 68 -35 62 -19 -7 -19 72 2 170 8 42 13 79 10 82 -3 3 -6 -2
-6 -10z m-2 -669 c-3 -8 -7 -3 -11 10 -4 17 -3 21 5 13 5 -5 8 -16 6 -23z m9
-87 c2 -26 0 -33 -7 -22 -11 17 -14 77 -3 66 4 -3 8 -23 10 -44z m238 -322 c3
-6 -1 -7 -9 -4 -18 7 -21 14 -7 14 6 0 13 -4 16 -10z m79 -59 c-2 -3 -12 3
-22 13 -16 17 -16 18 5 5 12 -7 20 -15 17 -18z m42 -87 c-3 -8 0 -11 8 -8 18
7 41 -22 25 -31 -14 -10 -64 39 -55 54 10 15 29 2 22 -15z m157 -121 c-7 -2
-19 -2 -25 0 -7 3 -2 5 12 5 14 0 19 -2 13 -5z m71 1 c9 -3 16 -10 16 -15 0
-14 -26 -10 -40 6 -13 16 -3 20 24 9z m5 -41 c20 -16 42 -27 49 -25 6 2 12 -2
12 -8 0 -6 4 -9 8 -6 4 2 14 1 21 -3 19 -12 4 -51 -20 -51 -24 0 -26 20 -1 20
10 1 0 10 -23 22 -22 11 -43 25 -46 30 -3 5 -9 9 -13 9 -15 -2 -23 1 -46 19
l-25 20 24 0 c13 0 40 -12 60 -27z m41 -4 c0 -6 -4 -7 -10 -4 -5 3 -10 11 -10
16 0 6 5 7 10 4 6 -3 10 -11 10 -16z m170 -71 c0 -4 -18 1 -40 11 -58 26 -62
34 -7 14 26 -9 47 -21 47 -25z m40 -8 c13 -8 13 -10 -2 -10 -9 0 -20 5 -23 10
-8 13 5 13 25 0z m287 -76 c34 -5 50 -29 32 -50 -16 -20 -29 -17 -29 6 0 12
-7 20 -17 20 -14 0 -15 -2 -4 -9 17 -11 1 -21 -30 -19 -13 0 -51 -6 -84 -15
-101 -27 -75 -9 33 24 53 15 63 29 23 29 -21 0 -29 4 -25 13 5 13 23 13 101 1z
m-197 -19 c0 -9 -6 -12 -15 -9 -8 4 -12 10 -9 15 8 14 24 10 24 -6z m60 -10
c0 -16 -9 -19 -35 -9 -13 5 -14 8 -3 15 20 13 38 11 38 -6z m40 -1 c0 -2 -7
-4 -15 -4 -8 0 -15 4 -15 10 0 5 7 7 15 4 8 -4 15 -8 15 -10z m-110 -53 c0 -5
-11 -11 -25 -13 -28 -6 -35 8 -7 15 28 8 32 7 32 -2z"/>
<path d="M2831 1794 c0 -11 3 -14 6 -6 3 7 2 16 -1 19 -3 4 -6 -2 -5 -13z"/>
<path d="M2795 1780 c-7 -12 2 -30 16 -30 12 0 12 27 0 35 -5 3 -12 1 -16 -5z"/>
<path d="M210 1770 c0 -5 -9 -10 -20 -10 -14 0 -20 -7 -20 -23 0 -12 9 -30 20
-40 19 -16 20 -16 20 8 0 16 -6 25 -15 25 -8 0 -15 5 -15 11 0 6 9 9 20 6 15
-4 20 0 20 14 0 10 -2 19 -5 19 -3 0 -5 -4 -5 -10z"/>
<path d="M1116 1758 c5 -7 2 -9 -7 -6 -19 8 -43 -12 -46 -37 -1 -11 0 -14 3
-7 3 6 15 12 27 13 12 0 16 3 10 6 -20 8 -15 22 6 16 23 -6 37 13 15 21 -10 4
-13 2 -8 -6z"/>
<path d="M1683 1748 c-12 -13 -42 -66 -68 -118 -26 -52 -56 -105 -66 -118 -17
-22 -16 -52 1 -52 4 0 13 14 20 31 10 22 15 27 21 17 12 -18 11 -30 -2 -23 -6
4 -5 -2 3 -14 7 -12 17 -21 22 -21 4 0 3 6 -3 13 -8 11 -7 13 7 12 9 0 23 -5
30 -9 13 -8 82 31 82 47 0 4 4 7 9 7 4 0 7 -12 5 -27 -2 -18 -1 -20 3 -8 3 11
9 22 13 25 12 7 50 110 41 110 -4 0 -17 -17 -28 -37 -28 -49 -88 -107 -102
-99 -21 13 -12 44 14 50 18 5 25 13 24 29 l0 22 -9 -22 c-5 -13 -14 -23 -20
-23 -7 0 -7 6 0 21 10 18 10 19 -8 10 -22 -11 -32 -32 -32 -63 0 -21 -21 -20
-28 2 -3 9 0 10 9 4 12 -6 12 -5 1 8 -9 12 -10 18 -2 23 7 4 9 17 6 28 -3 12
2 29 11 39 9 10 13 21 10 24 -6 6 39 104 48 104 6 0 -6 -30 -27 -67 -15 -25
-16 -33 -6 -39 7 -4 10 -4 6 1 -4 4 6 31 23 59 41 74 37 102 -8 54z m-63 -182
c0 -2 -7 -9 -15 -16 -13 -11 -14 -10 -9 4 5 14 24 23 24 12z m142 -38 c-7 -7
-12 -8 -12 -2 0 6 3 14 7 17 3 4 9 5 12 2 2 -3 -1 -11 -7 -17z"/>
<path d="M2766 1755 c4 -8 8 -15 10 -15 2 0 4 7 4 15 0 8 -4 15 -10 15 -5 0
-7 -7 -4 -15z"/>
<path d="M2841 1744 c0 -11 3 -14 6 -6 3 7 2 16 -1 19 -3 4 -6 -2 -5 -13z"/>
<path d="M2810 1725 c0 -9 -6 -12 -15 -9 -10 4 -15 0 -15 -14 0 -15 5 -19 20
-15 13 3 20 14 20 29 0 13 -2 24 -5 24 -3 0 -5 -7 -5 -15z"/>
<path d="M130 1689 c0 -18 -2 -19 -15 -9 -9 7 -18 10 -21 7 -10 -10 6 -27 27
-27 14 0 19 7 19 25 0 14 -2 25 -5 25 -3 0 -5 -10 -5 -21z"/>
<path d="M1240 1695 c-7 -9 -8 -15 -2 -15 5 0 12 7 16 15 3 8 4 15 2 15 -2 0
-9 -7 -16 -15z"/>
<path d="M2852 1685 c0 -16 2 -22 5 -12 2 9 2 23 0 30 -3 6 -5 -1 -5 -18z"/>
<path d="M825 1690 c-3 -5 -2 -10 4 -10 5 0 13 5 16 10 3 6 2 10 -4 10 -5 0
-13 -4 -16 -10z"/>
<path d="M163 1655 c0 -22 2 -30 4 -17 2 12 2 30 0 40 -3 9 -5 -1 -4 -23z"/>
<path d="M1860 1671 c0 -5 6 -14 14 -20 12 -10 13 -8 9 8 -5 21 -23 30 -23 12z"/>
<path d="M2800 1669 c-15 -4 -18 -7 -8 -8 9 -1 21 -8 26 -17 6 -11 11 -13 16
-5 13 20 -7 38 -34 30z"/>
<path d="M1943 1635 c0 -8 7 -15 15 -15 7 0 12 5 10 12 -6 18 -25 21 -25 3z"/>
<path d="M2791 1633 c-1 -19 4 -23 27 -22 22 1 23 2 5 6 -12 2 -24 12 -26 21
-3 12 -5 10 -6 -5z"/>
<path d="M121 1594 c0 -11 3 -14 6 -6 3 7 2 16 -1 19 -3 4 -6 -2 -5 -13z"/>
<path d="M2775 1584 c-19 -14 -19 -15 3 -20 27 -8 28 -20 3 -34 -16 -8 -23 -6
-35 12 l-16 22 0 -22 c0 -13 -4 -20 -10 -17 -6 4 -7 11 -4 17 4 6 -1 8 -12 6
-11 -2 -19 -10 -19 -18 0 -8 -6 -20 -14 -26 -12 -10 -12 -12 0 -20 8 -5 14
-16 14 -24 0 -8 7 -15 15 -15 8 0 14 6 13 13 -2 6 2 12 7 12 6 0 11 -10 11
-22 1 -16 3 -18 6 -6 6 22 32 31 49 17 20 -16 17 -29 -6 -29 -15 0 -20 -6 -19
-27 1 -17 3 -21 6 -10 2 9 9 17 15 17 7 0 8 -15 4 -41 -5 -31 -3 -40 6 -37 8
3 12 17 10 36 -3 25 0 31 20 34 18 2 23 9 23 31 -1 15 3 27 7 27 4 0 8 -5 8
-11 0 -5 15 4 33 21 l32 31 -24 20 c-14 11 -32 18 -42 16 -12 -3 -15 0 -12 14
6 23 -13 49 -36 49 -9 0 -25 -7 -36 -16z"/>
<path d="M2861 1584 c0 -11 3 -14 6 -6 3 7 2 16 -1 19 -3 4 -6 -2 -5 -13z"/>
<path d="M1940 1486 c0 -2 7 -7 16 -10 8 -3 12 -2 9 4 -6 10 -25 14 -25 6z"/>
<path d="M2022 1474 c10 -10 20 -16 22 -13 3 3 -5 11 -17 18 -21 13 -21 12 -5
-5z"/>
<path d="M1645 1445 c-26 -11 -27 -13 -8 -14 12 -1 23 -6 25 -11 2 -6 13 -12
26 -13 20 -1 18 -6 -25 -49 -59 -60 -95 -76 -129 -58 l-24 14 26 27 c14 15 23
32 20 38 -9 13 -43 15 -50 2 -4 -5 3 -7 14 -4 23 6 28 -15 8 -35 -17 -17 -28
-15 -29 6 -1 11 -3 9 -8 -7 -4 -16 -19 -28 -43 -37 -33 -11 -44 -10 -127 22
-112 42 -171 45 -206 10 -27 -27 -25 -46 7 -82 10 -11 15 -24 11 -27 -3 -4 0
-7 8 -7 11 0 11 -2 -1 -10 -9 -6 -10 -10 -3 -10 7 0 16 7 20 14 7 12 16 13 53
5 25 -6 81 -8 126 -5 75 5 82 4 101 -17 30 -33 35 -65 12 -88 -22 -22 -12 -26
16 -6 14 11 17 22 13 55 -5 36 -3 43 19 58 22 14 34 15 82 5 87 -18 220 -24
284 -13 32 5 60 5 63 1 3 -5 10 -9 15 -9 6 0 7 5 4 10 -3 6 14 19 38 29 25 11
48 24 51 30 4 6 -13 2 -36 -9 -53 -24 -62 -24 -94 -4 l-25 17 22 23 c18 19 29
23 68 19 43 -4 38 -1 -16 10 -15 4 -23 14 -25 32 -2 19 -9 28 -23 30 -16 1
-16 1 -2 -3 10 -3 17 -15 17 -28 0 -22 -4 -23 -107 -28 -75 -4 -125 -12 -162
-27 -30 -11 -57 -18 -60 -16 -2 3 0 5 6 5 6 0 34 21 62 46 44 39 51 43 51 25
0 -35 28 -22 43 20 4 13 1 16 -15 11 -18 -4 -20 -2 -14 14 5 10 10 28 13 39 4
19 3 19 -9 -1 -11 -18 -17 -20 -38 -12 -20 7 -22 11 -10 18 22 14 -1 11 -35
-5z m-362 -122 c60 -21 74 -29 61 -36 -9 -5 -39 -6 -68 -3 -59 7 -44 -8 19
-18 22 -4 51 -14 65 -22 23 -14 17 -15 -73 -10 -122 6 -172 26 -172 71 0 23 6
31 25 36 44 12 63 10 143 -18z m607 -19 c-23 -27 -40 -33 -137 -51 -44 -8
-145 6 -137 19 3 5 15 8 25 5 11 -3 19 -1 19 5 0 5 10 8 23 7 12 -1 33 3 47 8
40 17 61 21 119 22 47 1 52 -1 41 -15z m-367 -8 c9 -7 17 -16 17 -19 0 -12
-51 -16 -81 -5 l-34 12 30 12 c38 16 46 16 68 0z m-94 -29 c33 -14 32 -27 -2
-27 -27 0 -87 22 -87 32 0 13 54 9 89 -5z m451 -4 c0 -5 -7 -17 -15 -27 -13
-17 -24 -18 -132 -12 -65 3 -134 10 -153 15 -34 8 -34 8 -10 15 14 4 39 2 55
-4 42 -16 167 -14 207 4 39 17 48 19 48 9z m-397 -45 c-19 -19 -24 -20 -39 -7
-15 13 -15 14 7 20 47 13 55 10 32 -13z m414 16 c-3 -3 -12 -4 -19 -1 -8 3 -5
6 6 6 11 1 17 -2 13 -5z"/>
<path d="M1159 1293 c-13 -15 -12 -15 9 -4 23 12 28 21 13 21 -5 0 -15 -7 -22
-17z"/>
<path d="M1537 1443 c-4 -6 0 -14 9 -17 24 -9 64 -7 64 3 0 15 -32 22 -45 11
-9 -8 -14 -7 -17 2 -3 8 -6 9 -11 1z"/>
<path d="M1149 1403 l-24 -28 28 24 c25 23 32 31 24 31 -2 0 -14 -12 -28 -27z"/>
<path d="M2862 1405 c0 -16 2 -22 5 -12 2 9 2 23 0 30 -3 6 -5 -1 -5 -18z"/>
<path d="M2720 1395 c0 -18 -5 -25 -18 -25 -11 0 -24 -11 -30 -25 -16 -34 -16
-35 11 -34 12 0 16 3 10 6 -9 3 -10 10 -3 24 13 24 27 24 33 2 3 -10 5 3 6 30
0 26 -1 47 -4 47 -3 0 -5 -11 -5 -25z"/>
<path d="M72 1379 c2 -7 10 -15 17 -17 8 -3 12 1 9 9 -2 7 -10 15 -17 17 -8 3
-12 -1 -9 -9z"/>
<path d="M2748 1363 c7 -3 16 -2 19 1 4 3 -2 6 -13 5 -11 0 -14 -3 -6 -6z"/>
<path d="M2822 1340 c0 -19 2 -27 5 -17 2 9 2 25 0 35 -3 9 -5 1 -5 -18z"/>
<path d="M131 1328 c-1 -21 3 -25 18 -21 14 4 21 -1 24 -19 4 -21 4 -20 6 5 1
28 21 39 21 11 0 -8 4 -13 9 -10 5 3 15 -2 22 -11 12 -15 12 -16 -3 -10 -14 5
-18 1 -18 -16 0 -16 3 -18 9 -8 6 9 16 11 32 6 22 -7 23 -7 9 10 -45 54 -73
79 -77 68 -7 -19 -41 -16 -46 5 -3 11 -5 7 -6 -10z"/>
<path d="M2750 1327 c0 -9 -4 -17 -10 -17 -5 0 -7 -7 -4 -15 4 -8 12 -15 20
-15 11 0 13 7 8 28 -8 33 -14 41 -14 19z"/>
<path d="M62 1318 c6 -18 28 -21 28 -4 0 9 -7 16 -16 16 -9 0 -14 -5 -12 -12z"/>
<path d="M1550 1319 c0 -5 5 -7 10 -4 6 3 10 8 10 11 0 2 -4 4 -10 4 -5 0 -10
-5 -10 -11z"/>
<path d="M2706 1271 c-6 -43 -9 -48 -29 -44 -20 4 -24 -2 -40 -63 -14 -54 -15
-69 -5 -76 22 -13 35 -9 43 15 4 12 8 24 9 27 2 3 6 22 10 43 8 36 29 50 39
25 3 -8 6 -6 6 5 1 9 -6 17 -14 17 -13 0 -15 9 -9 50 4 28 4 50 2 50 -3 0 -8
-22 -12 -49z m-31 -83 c-4 -18 -12 -37 -17 -43 -7 -7 -8 -2 -3 15 3 14 9 33
11 43 9 30 16 18 9 -15z m-24 -85 c-8 -15 -10 -15 -11 -2 0 17 10 32 18 25 2
-3 -1 -13 -7 -23z"/>
<path d="M2782 1295 c0 -16 2 -22 5 -12 2 9 2 23 0 30 -3 6 -5 -1 -5 -18z"/>
<path d="M2852 1295 c0 -16 2 -22 5 -12 2 9 2 23 0 30 -3 6 -5 -1 -5 -18z"/>
<path d="M2811 1264 c0 -11 3 -14 6 -6 3 7 2 16 -1 19 -3 4 -6 -2 -5 -13z"/>
<path d="M115 1260 c-7 -12 18 -24 37 -18 8 3 5 9 -9 16 -14 8 -24 9 -28 2z"/>
<path d="M2741 1254 c0 -11 3 -14 6 -6 3 7 2 16 -1 19 -3 4 -6 -2 -5 -13z"/>
<path d="M184 1219 c6 -22 12 -36 14 -30 2 6 10 11 18 11 8 0 14 7 14 15 0 9
-9 15 -21 15 -15 0 -19 5 -15 15 3 9 0 15 -8 15 -11 0 -11 -8 -2 -41z"/>
<path d="M2771 1234 c0 -11 3 -14 6 -6 3 7 2 16 -1 19 -3 4 -6 -2 -5 -13z"/>
<path d="M2841 1234 c0 -11 3 -14 6 -6 3 7 2 16 -1 19 -3 4 -6 -2 -5 -13z"/>
<path d="M250 1225 c0 -8 4 -15 10 -15 5 0 7 7 4 15 -4 8 -8 15 -10 15 -2 0
-4 -7 -4 -15z"/>
<path d="M1102 1235 c4 -4 3 -14 -3 -22 -7 -8 -8 -13 -1 -13 15 0 23 28 9 36
-7 4 -9 4 -5 -1z"/>
<path d="M2797 1219 c4 -13 8 -18 11 -10 2 7 -1 18 -6 23 -8 8 -9 4 -5 -13z"/>
<path d="M151 1214 c0 -11 3 -14 6 -6 3 7 2 16 -1 19 -3 4 -6 -2 -5 -13z"/>
<path d="M2750 1196 c0 -8 4 -17 9 -20 10 -7 23 19 14 28 -11 11 -23 6 -23 -8z"/>
<path d="M1956 1183 c-6 -14 -5 -15 5 -6 7 7 10 15 7 18 -3 3 -9 -2 -12 -12z"/>
<path d="M231 1176 c-1 -11 -6 -16 -15 -13 -8 3 -17 -1 -20 -9 -4 -11 0 -13
19 -8 25 6 29 -1 28 -43 -1 -7 3 -13 8 -13 12 0 11 7 -5 60 -8 25 -15 37 -15
26z"/>
<path d="M1433 1168 c-15 -20 -25 -38 -20 -38 3 0 12 11 21 25 17 26 16 35 -1
13z"/>
<path d="M1740 1150 c6 -11 13 -20 16 -20 3 0 2 5 -2 12 -5 7 -2 9 9 5 11 -4
14 -2 10 9 -3 7 -14 14 -24 14 -17 0 -18 -3 -9 -20z"/>
<path d="M1965 1160 l-20 -9 20 0 c11 -1 31 -4 45 -7 24 -5 24 -5 6 10 -22 18
-23 18 -51 6z"/>
<path d="M140 1151 c0 -6 6 -11 14 -11 8 0 17 -6 20 -12 3 -7 5 -4 3 7 -2 20
-37 35 -37 16z"/>
<path d="M2706 1124 c-4 -14 -5 -29 -2 -31 3 -3 8 7 12 21 3 15 4 29 1 32 -2
3 -8 -7 -11 -22z"/>
<path d="M2772 1139 c2 -6 8 -10 13 -10 5 0 11 4 13 10 2 6 -4 11 -13 11 -9 0
-15 -5 -13 -11z"/>
<path d="M1975 1130 c-3 -6 1 -7 9 -4 18 7 21 14 7 14 -6 0 -13 -4 -16 -10z"/>
<path d="M211 1123 c-1 -7 -9 -13 -18 -13 -13 0 -14 -3 -6 -11 6 -6 10 -17 9
-23 -2 -6 -1 -8 1 -3 3 4 11 7 19 7 16 0 16 6 4 35 -5 11 -9 14 -9 8z"/>
<path d="M2037 1116 c-4 -10 -5 -21 -2 -24 9 -9 17 6 13 25 -3 17 -4 17 -11
-1z"/>
<path d="M2740 1113 c0 -12 -7 -28 -15 -37 -8 -8 -15 -24 -15 -37 0 -17 3 -19
14 -9 8 6 13 17 10 25 -7 18 16 31 27 14 5 -9 9 -10 9 -2 0 6 3 19 7 29 4 11
3 15 -5 10 -6 -3 -15 2 -21 11 -9 16 -10 16 -11 -4z"/>
<path d="M2801 1083 c-1 -6 -4 -20 -7 -30 -5 -17 -5 -17 6 0 6 10 9 23 6 30
-3 9 -5 9 -5 0z"/>
<path d="M2632 1018 c-12 -28 -20 -54 -17 -56 3 -3 5 0 5 7 0 7 5 9 10 6 6 -3
10 -16 9 -28 0 -12 -3 -16 -6 -9 -9 23 -29 12 -52 -28 -12 -22 -20 -40 -17
-40 3 0 13 14 22 31 12 24 18 28 24 19 10 -17 -13 -65 -37 -79 -16 -10 -16
-11 5 -17 14 -4 21 -12 18 -20 -10 -26 0 -14 33 36 18 28 37 48 41 45 12 -7 1
-35 -14 -35 -6 0 -3 -5 7 -11 9 -6 15 -14 12 -19 -7 -12 12 -23 26 -14 8 5 4
12 -11 24 -19 14 -20 19 -8 31 7 8 14 21 16 29 2 8 10 28 18 44 8 16 12 32 9
34 -3 3 -5 0 -5 -6 0 -7 -7 -12 -16 -12 -10 0 -14 5 -10 15 16 39 14 46 -2 12
-17 -33 -20 -36 -25 -18 -3 12 -12 21 -21 21 -18 0 -20 8 -6 30 8 12 10 12 16
-3 7 -20 24 -13 24 11 0 13 -2 14 -9 3 -12 -19 -24 3 -16 29 12 38 -1 20 -23
-32z m21 -109 c-6 -6 -7 3 -4 23 4 28 6 29 9 9 2 -13 0 -27 -5 -32z m40 15 c8
-8 -3 -34 -14 -34 -5 0 -9 9 -9 20 0 19 11 26 23 14z m-73 -68 c0 -2 -8 -10
-17 -17 -16 -13 -17 -12 -4 4 13 16 21 21 21 13z"/>
<path d="M200 1038 c0 -18 18 -34 28 -24 3 4 -2 14 -11 23 -16 16 -17 16 -17
1z"/>
<path d="M1820 1041 c0 -5 7 -12 16 -15 14 -5 15 -4 4 9 -14 17 -20 19 -20 6z"/>
<path d="M723 1013 c9 -2 17 -12 18 -21 12 -291 12 -290 -13 -295 -13 -2 17
-5 65 -6 85 -1 90 0 118 28 20 20 29 40 29 61 0 37 -23 85 -46 94 -14 5 -13 9
7 25 27 22 49 12 49 -21 0 -10 4 -17 10 -13 12 7 1 36 -22 56 -10 9 -18 26
-18 38 0 11 -9 30 -20 41 -17 17 -32 20 -107 19 -49 -1 -80 -3 -70 -6z m142
-17 c21 -15 25 -67 5 -90 -7 -9 -28 -16 -50 -16 l-38 0 0 53 c1 28 2 54 4 57
6 12 61 9 79 -4z m22 -156 c16 -32 16 -74 1 -103 -18 -31 -28 -37 -70 -37
l-38 0 0 84 c0 92 2 96 59 86 24 -3 40 -13 48 -30z"/>
<path d="M1235 1009 c-16 -4 -25 -7 -18 -8 15 -1 18 -288 4 -305 -7 -8 -2 -12
17 -14 l27 -2 -3 90 -4 90 25 0 c31 0 39 -11 67 -88 22 -61 49 -92 80 -92 10
0 7 7 -12 23 -14 12 -33 45 -42 73 -9 29 -26 60 -36 69 -20 18 -20 18 10 36
24 15 30 26 30 52 0 18 -6 41 -13 51 -16 21 -87 35 -132 25z m102 -26 c23 -59
-3 -113 -54 -113 -22 0 -23 4 -23 65 l0 65 35 0 c25 0 38 -5 42 -17z"/>
<path d="M1501 995 c-37 -32 -54 -82 -53 -156 1 -68 31 -135 67 -149 68 -26
125 43 126 152 1 73 -12 112 -49 151 -32 34 -52 34 -91 2z m73 -7 c19 -32 28
-77 28 -157 1 -85 -23 -134 -62 -129 -36 4 -53 49 -54 138 0 82 16 144 42 160
25 14 30 12 46 -12z"/>
<path d="M1721 991 c-79 -84 -50 -301 39 -301 17 0 33 -7 39 -17 8 -14 12 -15
25 -4 18 15 22 36 5 25 -7 -4 -10 -3 -7 2 36 74 41 95 41 155 -1 98 -43 169
-98 169 -9 0 -29 -13 -44 -29z m85 -22 c37 -72 26 -249 -16 -249 -10 0 -20 -6
-23 -12 -3 -10 -8 -9 -21 2 -17 17 -34 82 -20 79 26 -4 37 3 17 11 -20 8 -23
17 -23 62 0 67 16 125 38 137 21 12 28 7 48 -30z"/>
<path d="M1870 1010 c0 -5 5 -10 10 -10 6 0 10 -31 10 -74 0 -133 10 -194 38
-221 30 -30 71 -32 103 -6 23 18 24 27 29 155 4 107 8 139 20 146 8 5 19 5 24
0 13 -13 9 -289 -5 -306 -10 -12 1 -14 72 -14 46 0 90 4 97 9 8 4 16 28 19 52
l5 44 -24 -45 c-22 -43 -25 -45 -70 -48 l-48 -3 0 85 c0 85 0 86 25 86 19 0
25 -5 25 -22 0 -34 7 -17 13 35 4 28 3 47 -3 47 -6 0 -10 -6 -10 -14 0 -19
-23 -36 -37 -28 -7 4 -11 21 -9 37 2 17 4 44 5 60 l1 30 56 -3 55 -4 -18 -21
c-16 -19 -16 -20 -1 -8 15 11 19 11 25 -4 6 -16 7 -16 15 5 5 13 5 27 0 32
-14 14 -248 23 -256 9 -4 -6 -2 -11 3 -11 7 0 11 -47 11 -135 0 -122 -2 -137
-20 -155 -32 -32 -66 -25 -89 17 -15 28 -15 273 0 273 5 0 7 5 4 10 -3 6 -22
10 -41 10 -19 0 -34 -4 -34 -10z"/>
<path d="M2736 1005 c-9 -26 -7 -32 5 -12 6 10 9 21 6 23 -2 3 -7 -2 -11 -11z"/>
<path d="M1057 961 c-18 -53 -22 -82 -5 -41 10 25 10 24 22 -15 l12 -40 -36
-6 -35 -5 40 -5 39 -4 20 -77 c17 -65 24 -78 44 -83 32 -8 37 -1 18 27 -8 13
-32 82 -52 153 -20 72 -40 133 -43 137 -4 4 -14 -14 -24 -41z"/>
<path d="M220 993 c0 -15 18 -35 23 -27 3 5 -1 15 -9 22 -8 7 -14 9 -14 5z"/>
<path d="M2766 985 c-9 -26 -7 -32 5 -12 6 10 9 21 6 23 -2 3 -7 -2 -11 -11z"/>
<path d="M172 971 c4 -13 18 -16 19 -4 0 4 -5 9 -11 12 -7 2 -11 -2 -8 -8z"/>
<path d="M250 912 c0 -11 7 -22 15 -26 9 -3 15 0 15 8 0 7 -7 19 -15 26 -12
10 -15 9 -15 -8z"/>
<path d="M2721 883 c-10 -26 -10 -27 4 -9 8 11 15 23 15 28 0 15 -7 8 -19 -19z"/>
<path d="M2534 830 c-13 -22 -23 -28 -39 -24 -18 4 -24 -3 -40 -48 -10 -29
-25 -64 -34 -77 -20 -32 -162 -154 -236 -202 -50 -34 -67 -40 -103 -37 -40 3
-43 2 -37 -20 4 -17 0 -24 -17 -31 -52 -20 -111 -51 -88 -45 14 4 46 17 72 29
43 21 68 19 54 -3 -3 -5 1 -9 9 -9 18 0 19 9 3 25 -9 9 -7 12 11 12 12 0 20
-4 17 -9 -3 -5 2 -8 12 -7 9 0 16 -5 14 -12 -2 -9 6 -9 28 3 32 17 55 12 44
-8 -5 -8 -3 -8 7 1 16 15 56 16 61 1 2 -7 10 -4 18 7 9 11 10 15 3 10 -21 -12
-36 3 -21 22 10 12 10 14 1 8 -23 -13 -36 5 -14 21 22 15 46 9 35 -9 -4 -7 -2
-8 4 -4 6 4 9 12 6 19 -6 17 72 92 81 77 4 -6 1 -19 -6 -28 -7 -9 8 3 33 26
30 29 48 40 53 32 8 -13 -32 -60 -51 -60 -6 0 -14 -9 -17 -20 -7 -28 8 -17 67
47 46 51 71 62 71 33 0 -7 5 -15 11 -17 7 -2 11 6 10 20 0 15 -6 23 -13 20
-19 -8 -16 14 5 29 9 7 23 24 31 38 13 22 12 24 -1 13 -8 -7 -18 -10 -21 -6
-6 6 -11 -11 -9 -29 2 -12 -27 -30 -38 -23 -8 5 -7 12 2 23 6 10 -9 -3 -34
-26 -28 -28 -48 -40 -52 -33 -9 13 83 113 96 105 4 -3 5 -11 1 -17 -3 -7 3 -3
15 7 24 21 31 36 8 17 -11 -9 -16 -9 -21 0 -4 6 -2 15 5 19 6 4 17 16 23 27 7
12 18 31 26 44 13 22 13 23 -1 11 -12 -10 -18 -10 -23 -1 -5 7 -16 2 -32 -16
-14 -14 -23 -29 -20 -32 3 -2 13 7 23 22 12 19 20 23 28 15 8 -8 5 -16 -10
-29 -12 -9 -24 -26 -28 -37 -8 -26 -56 -72 -56 -55 0 7 6 25 14 39 8 15 19 46
26 70 7 28 15 40 23 36 7 -4 9 -4 5 1 -4 4 2 23 13 42 11 18 18 33 15 33 -3 0
-13 -13 -22 -30z m-40 -54 c-3 -9 -10 -16 -15 -16 -6 0 -5 9 1 21 13 24 24 20
14 -5z m-34 -90 c-10 -25 -15 -47 -10 -52 5 -5 -31 -46 -83 -94 l-92 -84 73
78 c41 43 72 80 69 82 -2 2 -32 -22 -65 -55 -34 -32 -62 -56 -62 -53 0 2 -6
-1 -14 -8 -8 -6 -12 -18 -9 -27 7 -19 -33 -53 -62 -53 -17 1 -14 6 15 31 l35
31 -40 -26 c-22 -14 -51 -26 -65 -26 -21 0 -16 6 30 36 63 41 174 130 209 167
13 14 29 23 36 21 7 -3 15 6 20 23 6 25 22 53 31 53 2 0 -5 -20 -16 -44z m38
-122 c-24 -24 -44 -7 -22 17 12 13 21 16 28 9 7 -7 5 -15 -6 -26z m-74 -13 c8
-12 -21 -34 -34 -26 -8 5 -8 11 1 21 13 16 25 18 33 5z m-347 -127 c-3 -3 -12
-4 -19 -1 -8 3 -5 6 6 6 11 1 17 -2 13 -5z m109 -16 c6 -10 -24 -9 -51 2 -16
6 -14 8 13 7 18 0 35 -4 38 -9z m59 -8 c8 -13 -15 -13 -35 0 -12 8 -11 10 7
10 12 0 25 -4 28 -10z"/>
<path d="M250 836 c0 -9 7 -16 16 -16 17 0 14 22 -4 28 -7 2 -12 -3 -12 -12z"/>
<path d="M290 843 c0 -7 5 -15 10 -18 6 -3 7 -17 4 -29 -4 -19 -1 -24 21 -28
25 -5 25 -5 9 21 -35 54 -44 65 -44 54z"/>
<path d="M2626 795 c3 -6 -6 -23 -18 -37 -13 -14 -29 -35 -36 -48 -13 -22 -13
-22 10 -6 13 9 23 20 24 24 3 22 17 40 30 35 8 -3 11 -9 8 -14 -13 -22 6 -6
21 17 9 15 12 23 6 20 -6 -4 -14 -1 -17 7 -2 7 -11 14 -18 14 -8 0 -12 -6 -10
-12z"/>
<path d="M945 699 l-30 -19 40 0 c27 0 35 3 26 9 -7 5 -10 14 -7 20 9 14 7 13
-29 -10z"/>
<path d="M2599 683 c-13 -16 -12 -17 4 -4 16 13 21 21 13 21 -2 0 -10 -8 -17
-17z"/>
<path d="M445 620 c10 -11 20 -20 23 -20 3 0 -3 9 -13 20 -10 11 -20 20 -23
20 -3 0 3 -9 13 -20z"/>
<path d="M525 530 c21 -22 41 -40 44 -40 3 0 -13 18 -34 40 -21 22 -41 40 -44
40 -3 0 13 -18 34 -40z"/>
<path d="M2460 489 c-11 -19 -10 -20 9 -9 22 11 29 30 11 30 -5 0 -14 -9 -20
-21z"/>
<path d="M2334 457 c-15 -17 -16 -19 -2 -8 23 17 43 5 26 -17 -8 -10 -8 -13
-1 -9 6 4 13 1 16 -5 3 -9 8 -10 15 -3 7 7 3 18 -13 37 l-23 27 -18 -22z"/>
<path d="M652 419 c2 -7 10 -15 17 -17 8 -3 12 1 9 9 -2 7 -10 15 -17 17 -8 3
-12 -1 -9 -9z"/>
<path d="M718 418 c18 -23 6 -43 -16 -26 -10 8 -13 8 -9 1 4 -6 2 -13 -5 -15
-6 -2 -8 -10 -4 -16 5 -8 13 -9 25 -2 12 6 22 5 31 -3 12 -10 12 -9 1 5 -16
21 -5 44 13 29 9 -8 13 -7 13 4 0 8 -4 12 -9 9 -4 -3 -8 0 -8 7 0 7 -3 9 -7 6
-3 -4 -13 -1 -22 6 -14 10 -14 10 -3 -5z"/>
<path d="M2350 394 c-9 -3 -21 -13 -27 -23 -10 -16 -9 -18 8 -14 11 3 24 14
30 24 5 11 8 18 7 18 -2 -1 -10 -3 -18 -5z"/>
<path d="M780 376 c0 -3 9 -10 20 -16 11 -6 20 -8 20 -6 0 3 -9 10 -20 16 -11
6 -20 8 -20 6z"/>
<path d="M887 345 c3 -8 9 -12 14 -9 12 7 11 11 -5 17 -10 4 -13 1 -9 -8z"/>
<path d="M2012 347 c-12 -7 -20 -15 -17 -18 3 -3 -5 -14 -17 -25 -19 -16 -21
-16 -9 -1 10 12 11 21 4 28 -16 16 -30 -12 -24 -45 l6 -28 47 51 c48 52 50 60
10 38z"/>
<path d="M2093 353 c-23 -4 -30 -17 -14 -27 4 -3 16 3 26 14 10 11 16 19 14
19 -2 -1 -14 -4 -26 -6z"/>
<path d="M2137 340 c-8 -8 -23 -21 -33 -28 -10 -7 -5 -6 12 2 17 9 34 13 36
11 3 -3 12 3 21 13 15 16 15 18 -3 18 -11 0 -25 -7 -33 -16z"/>
<path d="M2212 340 c-14 -23 13 -23 33 0 13 14 12 16 -4 16 -11 0 -23 -8 -29
-16z"/>
<path d="M844 336 c17 -13 17 -18 5 -33 -8 -9 -9 -14 -2 -10 6 4 13 1 15 -5 3
-8 9 -5 16 9 11 20 9 24 -20 38 -28 13 -30 14 -14 1z"/>
<path d="M2285 340 c-4 -6 -3 -16 3 -22 6 -6 12 -6 17 2 4 6 3 16 -3 22 -6 6
-12 6 -17 -2z"/>
<path d="M911 311 c-11 -7 -5 -13 24 -25 21 -9 40 -15 42 -12 2 2 -10 9 -27
16 -16 7 -27 16 -24 21 7 11 3 11 -15 0z"/>
<path d="M1081 310 c-9 -5 -5 -9 10 -13 28 -7 31 -6 14 10 -6 6 -18 8 -24 3z"/>
<path d="M1997 284 c-16 -20 -35 -33 -42 -30 -8 3 -28 -9 -44 -26 -17 -18 -31
-27 -31 -21 0 6 3 13 8 16 4 2 1 2 -5 1 -7 -2 -13 0 -13 5 0 12 29 35 36 28 4
-3 12 -1 19 6 16 15 7 50 -12 43 -8 -3 -20 -6 -26 -6 -8 0 -7 -4 2 -9 7 -5 10
-14 7 -20 -4 -6 -12 -9 -17 -5 -5 3 -16 1 -24 -6 -7 -6 -67 -22 -132 -35 -65
-12 -110 -23 -100 -24 9 -1 17 -5 17 -10 0 -5 -8 -12 -17 -14 -10 -3 -2 -5 19
-6 31 -1 35 2 31 19 -4 16 0 20 23 20 26 0 26 -1 9 -13 -11 -9 -14 -16 -7 -21
18 -11 40 4 35 25 -4 14 0 19 16 19 22 0 28 -14 10 -25 -6 -4 -8 -13 -5 -21 3
-7 -3 -18 -12 -23 -15 -9 -14 -10 5 -8 12 0 20 4 17 8 -2 4 2 9 10 12 10 4 13
16 10 36 -3 18 -1 31 5 31 6 0 11 -7 11 -15 0 -8 6 -15 14 -15 9 0 13 7 11 20
-3 14 2 20 16 20 21 0 26 -16 7 -23 -9 -4 -8 -6 2 -6 9 -1 21 -15 27 -32 l12
-32 35 29 c19 16 35 34 35 41 1 20 -25 4 -37 -23 -7 -13 -17 -24 -23 -24 -6 0
0 15 13 33 24 31 62 44 74 26 3 -5 0 -9 -7 -9 -7 0 -10 -2 -7 -5 3 -3 13 -3
22 1 15 6 15 8 2 18 -13 9 -12 14 11 36 15 14 24 20 20 14 -4 -7 0 -14 8 -18
20 -7 19 -26 -1 -26 -14 0 -14 -2 1 -16 26 -26 43 -2 21 30 -16 25 -12 32 17
27 4 0 7 3 7 9 0 5 -10 9 -22 7 -14 -1 -22 3 -20 11 4 22 -12 13 -41 -24z"/>
<path d="M1848 283 c7 -3 16 -2 19 1 4 3 -2 6 -13 5 -11 0 -14 -3 -6 -6z"/>
<path d="M1810 269 c0 -5 5 -7 10 -4 6 3 10 8 10 11 0 2 -4 4 -10 4 -5 0 -10
-5 -10 -11z"/>
<path d="M1768 263 c7 -3 16 -2 19 1 4 3 -2 6 -13 5 -11 0 -14 -3 -6 -6z"/>
<path d="M2075 260 c-3 -6 1 -7 9 -4 18 7 21 14 7 14 -6 0 -13 -4 -16 -10z"/>
<path d="M1283 143 c9 -2 23 -2 30 0 6 3 -1 5 -18 5 -16 0 -22 -2 -12 -5z"/>
<path d="M1688 143 c6 -2 18 -2 25 0 6 3 1 5 -13 5 -14 0 -19 -2 -12 -5z"/>
<path d="M1623 133 c9 -2 23 -2 30 0 6 3 -1 5 -18 5 -16 0 -22 -2 -12 -5z"/>
</g>
</svg>
